<svg xmlns="http://www.w3.org/2000/svg" width="1920" viewBox="0 0 1440 810" height="1080" version="1.0"><defs><clipPath id="a"><path d="M532.797 220.86h374.25V553h-374.25Zm0 0"/></clipPath><clipPath id="b"><path d="M731.594 551.977c-42.047-16.684-71.75-57.684-71.75-105.715 0-62.774 50.875-113.649 113.648-113.649 37.781 0 71.223 18.407 91.95 46.762h23.64c-10.922-18.855-26.41-34.79-44.89-46.387.152 0 .226 0 .3.075l6.285-21.247 9.95-33.52-15.563 31.274-9.203 18.555c.078 0 .152.148.152.223-17.207-9.125-36.586-14.586-57.16-15.41l-2.32-40.325-2.992-51.773-2.993 51.773-2.32 40.325c-20.426.824-39.578 6.21-56.637 15.187l-15.261-16.086-24.016-25.363 19.305 29.105 11.445 17.207a134.264 134.264 0 0 0-42.195 41.899l-21.024-6.211-33.668-10.028 31.274 15.563 18.254 9.129c-9.653 18.031-15.262 38.531-15.711 60.3l-45.563 2.77-61.574 3.738 61.797 2.32 45.562 1.723c1.125 19.528 6.438 37.93 15.114 54.317l-15.485 14.664-25.363 24.015 29.102-19.304 16.609-10.996c6.21 9.875 43.172 39.203 71.3 35.09Zm155.691-105.715c0 16.832-3.664 32.765-10.172 47.058h21.395c5.539-14.664 8.531-30.527 8.531-47.058 0-16.61-2.992-32.473-8.531-47.063h-21.395a113.802 113.802 0 0 1 10.172 47.063Zm0 0"/></clipPath><linearGradient x1="24781.275" gradientTransform="matrix(.02439 0 0 -.02439 58.992 -353.147)" y1="-39349.275" x2="31406.743" gradientUnits="userSpaceOnUse" y2="-22232.56" id="c"><stop stop-color="#F06050" offset="0"/><stop stop-color="#F06050" offset=".125"/><stop stop-color="#F06050" offset=".188"/><stop stop-color="#F06050" offset=".203"/><stop stop-color="#F06050" offset=".211"/><stop stop-color="#F0614F" offset=".215"/><stop stop-color="#F0624F" offset=".219"/><stop stop-color="#F0634F" offset=".223"/><stop stop-color="#F0644E" offset=".227"/><stop stop-color="#F0644E" offset=".23"/><stop stop-color="#F0654E" offset=".234"/><stop stop-color="#F0664D" offset=".238"/><stop stop-color="#F0664D" offset=".242"/><stop stop-color="#F0674D" offset=".246"/><stop stop-color="#F0684C" offset=".25"/><stop stop-color="#F1694C" offset=".254"/><stop stop-color="#F1694C" offset=".258"/><stop stop-color="#F16A4C" offset=".262"/><stop stop-color="#F16B4B" offset=".266"/><stop stop-color="#F16B4B" offset=".27"/><stop stop-color="#F16C4B" offset=".273"/><stop stop-color="#F16D4A" offset=".277"/><stop stop-color="#F16E4A" offset=".281"/><stop stop-color="#F16E4A" offset=".285"/><stop stop-color="#F16F49" offset=".289"/><stop stop-color="#F17049" offset=".293"/><stop stop-color="#F17049" offset=".297"/><stop stop-color="#F17148" offset=".301"/><stop stop-color="#F17248" offset=".305"/><stop stop-color="#F17348" offset=".309"/><stop stop-color="#F17347" offset=".313"/><stop stop-color="#F17447" offset=".316"/><stop stop-color="#F17547" offset=".32"/><stop stop-color="#F17546" offset=".324"/><stop stop-color="#F17646" offset=".328"/><stop stop-color="#F17746" offset=".332"/><stop stop-color="#F27845" offset=".336"/><stop stop-color="#F27845" offset=".34"/><stop stop-color="#F27945" offset=".344"/><stop stop-color="#F27A44" offset=".348"/><stop stop-color="#F27B44" offset=".352"/><stop stop-color="#F27B44" offset=".355"/><stop stop-color="#F27C43" offset=".359"/><stop stop-color="#F27D43" offset=".363"/><stop stop-color="#F27D43" offset=".367"/><stop stop-color="#F27E43" offset=".371"/><stop stop-color="#F27F42" offset=".375"/><stop stop-color="#F28042" offset=".379"/><stop stop-color="#F28042" offset=".383"/><stop stop-color="#F28141" offset=".387"/><stop stop-color="#F28241" offset=".391"/><stop stop-color="#F28241" offset=".395"/><stop stop-color="#F28340" offset=".398"/><stop stop-color="#F28440" offset=".402"/><stop stop-color="#F28540" offset=".406"/><stop stop-color="#F2853F" offset=".41"/><stop stop-color="#F2863F" offset=".414"/><stop stop-color="#F2873F" offset=".418"/><stop stop-color="#F3873E" offset=".422"/><stop stop-color="#F3883E" offset=".426"/><stop stop-color="#F3893E" offset=".43"/><stop stop-color="#F38A3D" offset=".434"/><stop stop-color="#F38A3D" offset=".438"/><stop stop-color="#F38B3D" offset=".441"/><stop stop-color="#F38C3C" offset=".445"/><stop stop-color="#F38C3C" offset=".449"/><stop stop-color="#F38D3C" offset=".453"/><stop stop-color="#F38E3B" offset=".457"/><stop stop-color="#F38F3B" offset=".461"/><stop stop-color="#F38F3B" offset=".465"/><stop stop-color="#F3903A" offset=".469"/><stop stop-color="#F3913A" offset=".473"/><stop stop-color="#F3913A" offset=".477"/><stop stop-color="#F3923A" offset=".48"/><stop stop-color="#F39339" offset=".484"/><stop stop-color="#F39439" offset=".488"/><stop stop-color="#F39439" offset=".492"/><stop stop-color="#F39538" offset=".496"/><stop stop-color="#F39638" offset=".5"/><stop stop-color="#F49638" offset=".504"/><stop stop-color="#F49737" offset=".508"/><stop stop-color="#F49837" offset=".512"/><stop stop-color="#F49937" offset=".516"/><stop stop-color="#F49936" offset=".52"/><stop stop-color="#F49A36" offset=".523"/><stop stop-color="#F49B36" offset=".527"/><stop stop-color="#F49B35" offset=".531"/><stop stop-color="#F49C35" offset=".535"/><stop stop-color="#F49D35" offset=".539"/><stop stop-color="#F49E34" offset=".543"/><stop stop-color="#F49E34" offset=".547"/><stop stop-color="#F49F34" offset=".551"/><stop stop-color="#F4A033" offset=".555"/><stop stop-color="#F4A033" offset=".559"/><stop stop-color="#F4A133" offset=".563"/><stop stop-color="#F4A232" offset=".566"/><stop stop-color="#F4A332" offset=".57"/><stop stop-color="#F4A332" offset=".574"/><stop stop-color="#F4A431" offset=".578"/><stop stop-color="#F4A531" offset=".582"/><stop stop-color="#F5A531" offset=".586"/><stop stop-color="#F5A631" offset=".59"/><stop stop-color="#F5A730" offset=".594"/><stop stop-color="#F5A830" offset=".598"/><stop stop-color="#F5A830" offset=".602"/><stop stop-color="#F5A92F" offset=".605"/><stop stop-color="#F5AA2F" offset=".609"/><stop stop-color="#F5AA2F" offset=".613"/><stop stop-color="#F5AB2E" offset=".617"/><stop stop-color="#F5AC2E" offset=".621"/><stop stop-color="#F5AD2E" offset=".625"/><stop stop-color="#F5AD2D" offset=".629"/><stop stop-color="#F5AE2D" offset=".633"/><stop stop-color="#F5AF2D" offset=".637"/><stop stop-color="#F5B02C" offset=".641"/><stop stop-color="#F5B02C" offset=".645"/><stop stop-color="#F5B12C" offset=".648"/><stop stop-color="#F5B22B" offset=".652"/><stop stop-color="#F5B22B" offset=".656"/><stop stop-color="#F5B32B" offset=".66"/><stop stop-color="#F5B42A" offset=".664"/><stop stop-color="#F5B52A" offset=".668"/><stop stop-color="#F6B52A" offset=".672"/><stop stop-color="#F6B629" offset=".676"/><stop stop-color="#F6B729" offset=".68"/><stop stop-color="#F6B729" offset=".684"/><stop stop-color="#F6B828" offset=".688"/><stop stop-color="#F6B928" offset=".691"/><stop stop-color="#F6BA28" offset=".695"/><stop stop-color="#F6BA28" offset=".699"/><stop stop-color="#F6BB27" offset=".703"/><stop stop-color="#F6BC27" offset=".707"/><stop stop-color="#F6BC27" offset=".711"/><stop stop-color="#F6BD26" offset=".715"/><stop stop-color="#F6BE26" offset=".719"/><stop stop-color="#F6BF26" offset=".723"/><stop stop-color="#F6BF25" offset=".727"/><stop stop-color="#F6C025" offset=".73"/><stop stop-color="#F6C125" offset=".734"/><stop stop-color="#F6C124" offset=".738"/><stop stop-color="#F6C224" offset=".742"/><stop stop-color="#F6C324" offset=".746"/><stop stop-color="#F6C423" offset=".75"/><stop stop-color="#F7C423" offset=".754"/><stop stop-color="#F7C523" offset=".758"/><stop stop-color="#F7C622" offset=".762"/><stop stop-color="#F7C622" offset=".766"/><stop stop-color="#F7C722" offset=".77"/><stop stop-color="#F7C821" offset=".773"/><stop stop-color="#F7C921" offset=".777"/><stop stop-color="#F7C921" offset=".781"/><stop stop-color="#F7CA20" offset=".785"/><stop stop-color="#F7CB20" offset=".789"/><stop stop-color="#F7CB20" offset=".793"/><stop stop-color="#F7CC1F" offset=".797"/><stop stop-color="#F7CD1F" offset=".813"/><stop stop-color="#F7CD1F" offset=".875"/><stop stop-color="#F7CD1F" offset="1"/></linearGradient></defs><g clip-path="url(#a)"><g clip-path="url(#b)"><path fill="url(#c)" d="M532.957 556.09V220.86h374.082v335.23Zm0 0"/></g></g><path fill="#0f70bf" d="M679 542.547c8.227 8.379 17.953 14.816 28.578 18.93h-9.5c-6.887-5.536-13.32-11.82-19.078-18.93Zm154.418-28.953-25.586 25.586h-8.902c6.433-7.407 11.593-16.008 15.035-25.438Zm33.52-.223-25.813 25.809h-27.684l25.59-25.66Zm9.125 25.809h-29.329l25.887-25.883 18.629-.152c-4.113 9.351-9.2 18.105-15.188 26.035Zm-55.66 26.336h28.652c-14.664 10.55-31.645 17.882-49.903 21.25Zm3.964-3.965 18.403-18.403h30.226a127.403 127.403 0 0 1-18.629 18.403Zm-33.293 0 18.403-18.403h27.683l-18.406 18.403Zm-5.613 0h-18.328c10.547-4.114 20.125-10.473 28.054-18.403h8.68Zm-21.172 26.785 22.82-22.82h27.68l-22.293 22.297a132.037 132.037 0 0 1-28.207.523Zm-34.863-8.527 12.793-12.797c3.816-.223 7.707-.746 11.52-1.496h27.757l-22.219 22.222c-10.25-1.422-20.277-4.117-29.851-7.93Zm-26.04-14.293h17.66c5.087 1.047 10.173 1.574 15.411 1.648l-10.996 10.996c-7.707-3.515-15.113-7.707-22.074-12.644Zm0 0"/></svg>